<?xml version="1.0" standalone="no"?><!DOCTYPE svg PUBLIC "-//W3C//DTD SVG 1.1//EN" "http://www.w3.org/Graphics/SVG/1.1/DTD/svg11.dtd"><svg xmlns:xlink="http://www.w3.org/1999/xlink" version="1.1" class="highcharts-root" style="font-family:&quot;lucida grande&quot;, &quot;lucida sans unicode&quot;, arial, helvetica, sans-serif;font-size:12px;" xmlns="http://www.w3.org/2000/svg" width="600" height="400" viewBox="0 0 600 400"><desc>Created with Highcharts 5.0.12</desc><defs><clipPath id="highcharts-yi15zt8-19"><rect x="0" y="0" width="580" height="339" fill="none"></rect></clipPath></defs><rect fill="#ffffff" class="highcharts-background" x="0" y="0" width="600" height="400" rx="0" ry="0"></rect><rect fill="none" class="highcharts-plot-background" x="10" y="46" width="580" height="339"></rect><rect fill="none" class="highcharts-plot-border" x="10" y="46" width="580" height="339"></rect><g class="highcharts-series-group"><g class="highcharts-series highcharts-series-0 highcharts-pie-series highcharts-color-undefined " transform="translate(10,46) scale(1 1)"><path fill="#7cb5ec" d="M 278.97331881031596 45.00000271712173 A 131 131 0 1 1 231.847848885337 298.2197800900492 L 279 176 A 0 0 0 1 0 279 176 Z" transform="translate(0,0)" stroke="#ffffff" stroke-width="1" stroke-linejoin="round" class="highcharts-point highcharts-color-0"></path><path fill="#434348" d="M 231.7256527016905 298.17256683690823 A 131 131 0 0 1 156.93190693680333 128.456539293876 L 279 176 A 0 0 0 0 0 279 176 Z" transform="translate(0,0)" stroke="#ffffff" stroke-width="1" stroke-linejoin="round" class="highcharts-point highcharts-color-1"></path><path fill="#90ed7d" d="M 156.97951142362697 128.33449499288588 A 131 131 0 0 1 181.6803849056122 88.30796776285658 L 279 176 A 0 0 0 0 0 279 176 Z" transform="translate(0,0)" stroke="#ffffff" stroke-width="1" stroke-linejoin="round" class="highcharts-point highcharts-color-2"></path><path fill="#f7a35c" d="M 181.76812558303746 88.2106920099946 A 131 131 0 0 1 278.8180436281126 45.00012636693603 L 279 176 A 0 0 0 0 0 279 176 Z" transform="translate(0,0)" stroke="#ffffff" stroke-width="1" stroke-linejoin="round" class="highcharts-point highcharts-color-3"></path></g><g class="highcharts-markers highcharts-series-0 highcharts-pie-series highcharts-color-undefined " transform="translate(10,46) scale(1 1)"></g></g><text x="300" text-anchor="middle" class="highcharts-title" style="color:#333333;font-size:18px;fill:#333333;" y="24"><tspan>situação do ingresso do curso de:Ciência da Computação</tspan></text><g class="highcharts-data-labels highcharts-series-0 highcharts-pie-series highcharts-color-undefined " visibility="visible" transform="translate(10,46) scale(1 1)"><path fill="none" class="highcharts-data-label-connector highcharts-color-0" stroke="#7cb5ec" stroke-width="1" d="M 441.77099624917287 205.01765143595125 C 436.77099624917287 205.01765143595125 419.07610225858207 201.71754133752194 413.1778042617185 200.6175046380455 L 407.27950626485494 199.51746793856904"></path><path fill="none" class="highcharts-data-label-connector highcharts-color-1" stroke="#434348" stroke-width="1" d="M 126.15721380986298 240.39301470672766 C 131.15721380986298 240.39301470672766 147.63032034043732 233.13789505007486 153.12135585062876 230.7195218311906 L 158.6123913608202 228.30114861230635"></path><path fill="none" class="highcharts-data-label-connector highcharts-color-2" stroke="#90ed7d" stroke-width="1" d="M 136.50907978333868 90.91579474752788 C 141.50907978333868 90.91579474752788 156.82483483861756 100.37241396830117 161.93008652371054 103.5246203752256 L 167.03533820880352 106.67682678215002"></path><path fill="none" class="highcharts-data-label-connector highcharts-color-3" stroke="#f7a35c" stroke-width="1" d="M 208.0849439762061 28.38823824926881 C 213.0849439762061 28.38823824926881 220.3984285006054 44.835515960530685 222.83625667540517 50.31794186428464 L 225.27408485020493 55.8003677680386"></path><g class="highcharts-label highcharts-data-label highcharts-data-label-color-0 " style="cursor:pointer;" transform="translate(447,195)"><text x="5" style="font-size:11px;font-weight:bold;color:black;fill:black;" y="16"><tspan style="font-weight: bold;" x="5" y="16" class="highcharts-text-outline" fill="#FFFFFF" stroke="#FFFFFF" stroke-width="2px" stroke-linejoin="round">Desistentes</tspan><tspan dx="0" class="highcharts-text-outline" fill="#FFFFFF" stroke="#FFFFFF" stroke-width="2px" stroke-linejoin="round">: 55.9 %</tspan><tspan style="font-weight:bold" x="5" y="16">Desistentes</tspan><tspan dx="0">: 55.9 %</tspan></text></g><g class="highcharts-label highcharts-data-label highcharts-data-label-color-1 " style="cursor:pointer;" transform="translate(0,230)"><text x="5" style="font-size:11px;font-weight:bold;color:black;fill:black;" y="16"><tspan style="font-weight: bold;" x="5" y="16" class="highcharts-text-outline" fill="#FFFFFF" stroke="#FFFFFF" stroke-width="2px" stroke-linejoin="round">Formados</tspan><tspan dx="0" class="highcharts-text-outline" fill="#FFFFFF" stroke="#FFFFFF" stroke-width="2px" stroke-linejoin="round">: 25.1 %</tspan><tspan style="font-weight:bold" x="5" y="16">Formados</tspan><tspan dx="0">: 25.1 %</tspan></text></g><g class="highcharts-label highcharts-data-label highcharts-data-label-color-2 " style="cursor:pointer;" transform="translate(2,81)"><text x="5" style="font-size:11px;font-weight:bold;color:black;fill:black;" y="16"><tspan style="font-weight: bold;" x="5" y="16" class="highcharts-text-outline" fill="#FFFFFF" stroke="#FFFFFF" stroke-width="2px" stroke-linejoin="round">Transferidos</tspan><tspan dx="0" class="highcharts-text-outline" fill="#FFFFFF" stroke="#FFFFFF" stroke-width="2px" stroke-linejoin="round">: 5.8 %</tspan><tspan style="font-weight:bold" x="5" y="16">Transferidos</tspan><tspan dx="0">: 5.8 %</tspan></text></g><g class="highcharts-label highcharts-data-label highcharts-data-label-color-3 " style="cursor:pointer;" transform="translate(84,18)"><text x="5" style="font-size:11px;font-weight:bold;color:black;fill:black;" y="16"><tspan style="font-weight: bold;" x="5" y="16" class="highcharts-text-outline" fill="#FFFFFF" stroke="#FFFFFF" stroke-width="2px" stroke-linejoin="round">Cursando</tspan><tspan dx="0" class="highcharts-text-outline" fill="#FFFFFF" stroke="#FFFFFF" stroke-width="2px" stroke-linejoin="round">: 13.3 %</tspan><tspan style="font-weight:bold" x="5" y="16">Cursando</tspan><tspan dx="0">: 13.3 %</tspan></text></g></g><g class="highcharts-legend"><rect fill="none" class="highcharts-legend-box" rx="0" ry="0" x="0" y="0" width="8" height="8" visibility="hidden"></rect><g><g></g></g></g><text x="590" class="highcharts-credits" text-anchor="end" style="cursor:pointer;color:#999999;font-size:9px;fill:#999999;" y="395">Highcharts.com</text></svg>